<svg xmlns="http://www.w3.org/2000/svg" width="24" height="24" viewBox="0 0 24 24">
    <path fill="#222" d="M12 3c.245 0 .45.177.492.41l.008.09v2.019c3.192.243 5.739 2.79 5.981 5.982L20.5 11.5c.276 0 .5.224.5.5 0 .245-.177.45-.41.492l-.09.008h-2.019c-.243 3.191-2.79 5.738-5.98 5.981L12.5 20.5c0 .276-.224.5-.5.5-.245 0-.45-.177-.492-.41l-.008-.09v-2.019c-3.19-.242-5.738-2.79-5.981-5.98L3.5 12.5c-.276 0-.5-.224-.5-.5 0-.245.177-.45.41-.492l.09-.008h2.019C5.76 8.31 8.309 5.762 11.5 5.52L11.5 3.5c0-.276.224-.5.5-.5zm0 3.5c-3.038 0-5.5 2.462-5.5 5.5s2.462 5.5 5.5 5.5 5.5-2.462 5.5-5.5-2.462-5.5-5.5-5.5z"/>
</svg>
