<svg xmlns="http://www.w3.org/2000/svg" width="32" height="32" viewBox="0 0 32 32">
    <g fill="none">
        <path fill="#CCC" d="M16.443 3.363c.197.097.356.257.454.454l3.046 6.172c.291.59.855 1 1.506 1.095l6.812.99c.546.079.925.586.845 1.133-.031.217-.134.419-.291.572l-4.93 4.805c-.47.46-.686 1.121-.574 1.77l1.163 6.784c.094.545-.272 1.061-.816 1.155-.217.037-.44.002-.635-.1l-6.092-3.204c-.583-.306-1.279-.306-1.862 0l-6.092 3.203c-.49.257-1.094.07-1.35-.42-.103-.194-.138-.417-.101-.634l1.163-6.784c.112-.649-.103-1.31-.575-1.77l-4.929-4.805c-.395-.385-.403-1.019-.018-1.414.154-.158.355-.26.572-.292l6.812-.99c.651-.094 1.215-.503 1.506-1.094l3.046-6.172c.245-.495.844-.699 1.34-.454zM16 4.26l-3.046 6.172c-.408.826-1.171 1.416-2.066 1.607l-.193.034-6.812.99 4.93 4.805c.66.643.984 1.55.889 2.46l-.027.195-1.164 6.784 6.093-3.203c.812-.426 1.77-.457 2.602-.091l.19.091 6.093 3.203-1.164-6.784c-.156-.908.115-1.834.727-2.514l.136-.141 4.929-4.805-6.812-.99c-.912-.132-1.708-.676-2.166-1.468l-.093-.173L16 4.26z"/>
        <path fill="#FB4" d="M16 3.26v21.5c-.32 0-.64.076-.93.23l-6.093 3.202c-.49.257-1.094.07-1.35-.42-.103-.194-.138-.417-.101-.634l1.163-6.784c.112-.649-.103-1.31-.575-1.77l-4.929-4.805c-.395-.385-.403-1.019-.018-1.414.154-.158.355-.26.572-.292l6.812-.99c.651-.094 1.215-.503 1.506-1.094l3.046-6.172c.174-.352.528-.557.896-.558z"/>
    </g>
</svg>
