<svg xmlns="http://www.w3.org/2000/svg" width="24" height="24" viewBox="0 0 24 24">
    <path fill="currentColor" d="M11.535 18.245l-4.207 2.211c-.489.257-1.094.07-1.35-.42-.103-.194-.138-.417-.101-.634l.803-4.684c.056-.325-.052-.656-.287-.885l-3.404-3.318c-.395-.385-.403-1.018-.018-1.414.154-.157.355-.26.573-.292l4.703-.683c.326-.047.607-.252.753-.547l2.103-4.262c.245-.495.844-.699 1.34-.454.197.097.356.257.454.454L15 7.579c.146.295.427.5.753.547l4.703.683c.547.08.926.587.846 1.134-.031.217-.134.419-.291.572l-3.404 3.318c-.235.23-.343.56-.287.885l.803 4.684c.093.544-.272 1.061-.816 1.155-.217.037-.44.002-.635-.1l-4.207-2.212c-.291-.154-.639-.154-.93 0z"/>
</svg>
