<svg xmlns="http://www.w3.org/2000/svg" width="32" height="32" viewBox="0 0 32 32">
    <path fill="none" stroke="currentColor" d="M14.837 24.547c.728-.383 1.598-.383 2.326 0l6.093 3.203c.097.051.209.069.317.05.272-.047.455-.305.408-.577l-1.163-6.785c-.14-.81.13-1.638.719-2.212l4.929-4.805c.079-.077.13-.177.146-.286.04-.273-.15-.527-.423-.567l-6.812-.99c-.814-.118-1.518-.63-1.882-1.367l-3.047-6.173c-.048-.098-.128-.178-.227-.227-.247-.122-.547-.02-.67.227l-3.046 6.173c-.364.738-1.068 1.25-1.882 1.367l-6.812.99c-.109.016-.21.067-.286.146-.193.198-.189.514.01.707l4.928 4.805c.59.574.858 1.401.72 2.212l-1.164 6.785c-.019.108-.001.22.05.317.128.244.43.338.675.21l6.093-3.203z"/>
</svg>
