<svg xmlns="http://www.w3.org/2000/svg" width="48" height="48" viewBox="0 0 48 48">
    <g fill="none">
        <path fill="#FB4" stroke="#EBA01F" d="M24 4.5c-4.002 0-7.636 1.516-10.266 3.975C11.122 10.917 9.5 14.29 9.5 18.022c0 6.71 5.39 16.136 12.458 25.468.472.635 1.234 1.01 2.042 1.01.81 0 1.57-.377 2.047-1.017C33.11 34.163 38.5 24.737 38.5 18.023c0-3.734-1.622-7.106-4.234-9.548C31.636 6.016 28.002 4.5 24 4.5z"/>
        <path fill="#FFF" d="M24 14c2.761 0 5 2.239 5 5s-2.239 5-5 5-5-2.239-5-5 2.239-5 5-5z"/>
    </g>
</svg>
