<svg xmlns="http://www.w3.org/2000/svg" width="206" height="58" viewBox="0 0 206 58">
    <g fill="#F0F0F0">
        <g>
            <path d="M15.672 0C7.04 0 0 6.697 0 14.99c0 5.637 3.417 13.059 8.448 20.826.452-.824 1.327-1.383 2.334-1.383 1.097 0 2.039.664 2.445 1.613.406-.949 1.348-1.613 2.445-1.613 1.098 0 2.04.664 2.445 1.613.406-.949 1.347-1.613 2.445-1.613 1.008 0 1.885.56 2.335 1.386 5.029-7.76 8.447-15.186 8.447-20.83C31.344 6.698 24.304 0 15.672 0zm-5.336 15.672c0-2.945 2.39-5.335 5.336-5.335s5.336 2.39 5.336 5.335c0 2.946-2.39 5.336-5.336 5.336-2.945 0-5.336-2.39-5.336-5.336zM11.096 39.73c.658.935 1.335 1.871 2.027 2.806.585.81 1.538 2.251 2.549 2.251s1.964-1.441 2.559-2.26c.69-.932 1.364-1.865 2.02-2.796h-9.155z" transform="rotate(30 11.67 43.66)"/>
        </g>
        <path d="M10.5 55H206v3H10.5c-.828 0-1.5-.672-1.5-1.5s.672-1.5 1.5-1.5z"/>
    </g>
</svg>
